<svg width="800" height="920" viewBox="0 0 800 920" fill="none" xmlns="http://www.w3.org/2000/svg">
  <rect width="800" height="920" rx="52" fill="url(#paint0_linear_117_3)"/>
  <rect x="40" y="40" width="720" height="840" rx="40" fill="url(#paint1_linear_117_3)" fill-opacity="0.52" stroke="rgba(255,255,255,0.24)"/>
  <circle cx="604" cy="162" r="118" fill="url(#paint2_radial_117_3)" fill-opacity="0.88"/>
  <circle cx="208" cy="730" r="156" fill="url(#paint3_radial_117_3)" fill-opacity="0.9"/>
  <path d="M216 558C216 459.68 295.68 380 394 380H406C504.32 380 584 459.68 584 558V710H216V558Z" fill="rgba(255,255,255,0.14)"/>
  <circle cx="400" cy="278" r="118" fill="rgba(255,255,255,0.16)"/>
  <path d="M290 782H510" stroke="rgba(255,255,255,0.24)" stroke-width="2" stroke-linecap="round"/>
  <path d="M254 818H546" stroke="rgba(255,255,255,0.14)" stroke-width="2" stroke-linecap="round"/>
  <text x="402" y="150" text-anchor="middle" fill="white" fill-opacity="0.92" font-size="76" font-weight="700" font-family="Manrope, Arial, sans-serif" letter-spacing="0.12em">CH</text>
  <text x="402" y="844" text-anchor="middle" fill="white" fill-opacity="0.72" font-size="24" font-weight="600" font-family="Manrope, Arial, sans-serif" letter-spacing="0.2em">PORTRAIT SLOT</text>
  <defs>
    <linearGradient id="paint0_linear_117_3" x1="40" y1="40" x2="760" y2="880" gradientUnits="userSpaceOnUse">
      <stop stop-color="#111A2C"/>
      <stop offset="1" stop-color="#2F4663"/>
    </linearGradient>
    <linearGradient id="paint1_linear_117_3" x1="98" y1="84" x2="694" y2="802" gradientUnits="userSpaceOnUse">
      <stop stop-color="#E6A37A"/>
      <stop offset="0.54" stop-color="#5A7B82"/>
      <stop offset="1" stop-color="#F4E2CF"/>
    </linearGradient>
    <radialGradient id="paint2_radial_117_3" cx="0" cy="0" r="1" gradientUnits="userSpaceOnUse" gradientTransform="translate(604 162) rotate(90) scale(118)">
      <stop stop-color="#F5D1B0"/>
      <stop offset="1" stop-color="#F5D1B0" stop-opacity="0"/>
    </radialGradient>
    <radialGradient id="paint3_radial_117_3" cx="0" cy="0" r="1" gradientUnits="userSpaceOnUse" gradientTransform="translate(208 730) rotate(90) scale(156)">
      <stop stop-color="#87B8B0"/>
      <stop offset="1" stop-color="#87B8B0" stop-opacity="0"/>
    </radialGradient>
  </defs>
</svg>
